<?xml version="1.0" encoding="utf-8"?>
<svg viewBox="0 0 64 64" width="64" height="64" xmlns="http://www.w3.org/2000/svg">
  <defs>
    <linearGradient gradientUnits="userSpaceOnUse" x1="234.082" y1="107.416" x2="234.082" y2="197.829" id="gradient-0" gradientTransform="matrix(0.540648, 0, 0, 0.540648, -94.324824, -50.675235)">
      <stop offset="0" style="stop-color: rgb(12.157% 60.392% 63.922%)"/>
      <stop offset="1" style="stop-color: rgb(0% 36.605% 39.784%)"/>
    </linearGradient>
  </defs>
  <path fill-rule="evenodd" clip-rule="evenodd" d="M 61.679 27.659 C 61.48 26.334 60.975 25.073 60.206 23.977 C 59.435 22.88 58.42 21.978 57.241 21.338 C 56.915 21.158 56.571 21.005 56.219 20.884 C 56.667 14.938 46.481 13.327 41.387 14.743 L 44.018 7.574 L 39.152 7.401 L 30.637 19.594 C 27.766 18.782 24.376 18.392 22.184 21.908 C 21.987 22.229 21.807 22.563 21.645 22.906 C 21.087 22.793 20.521 22.736 19.952 22.733 C 18.329 22.733 15.627 23.22 14.256 24.174 C 13.164 24.895 12.302 25.908 11.763 27.098 C 8.837 26.698 6.356 27.382 4.733 29.081 C 2.679 31.195 2.095 34.689 3.166 38.434 C 4.577 43.435 8.87 49.069 17.401 51.183 C 18.142 52.103 19.027 52.894 20.024 53.53 C 25.382 56.962 34.08 57.258 40.68 54 C 43.241 54.476 45.882 54.223 48.303 53.27 C 53.05 51.49 56.5 47.771 57.149 43.993 C 58.433 43.325 59.486 42.287 60.166 41.009 C 61.588 38.336 61.788 35.66 60.831 33.497 C 61.731 31.692 62.031 29.647 61.679 27.659 Z M 58.176 30.47 C 57.799 30.817 57.095 33.45 57.397 34.515 C 57.786 35.886 58.066 37.455 57.063 39.342 C 55.938 41.457 53.51 41.792 52.165 41.807 L 52.079 41.807 C 48.704 41.807 45.266 39.889 43.877 37.386 L 41.854 38.353 C 42.252 39.644 42.927 40.827 43.832 41.83 C 43.053 42.493 42.465 43.351 42.125 44.314 C 41.788 45.282 41.712 46.318 41.909 47.321 L 43.904 47.506 C 43.996 46.693 44.33 45.929 44.865 45.314 C 45.402 44.695 46.112 44.255 46.903 44.052 C 48.567 44.794 50.375 45.163 52.198 45.133 C 52.457 45.133 52.704 45.106 52.959 45.088 C 51.666 47.38 49.617 49.153 47.163 50.101 C 41.172 52.428 37.134 48.82 36.21 47.576 C 33.981 44.591 35.761 43.419 36.846 41.586 L 35.835 39.368 C 34.28 40.71 32.118 41.498 31.761 43.52 C 29.474 42.836 27.139 44.805 25.418 47.74 C 27.554 47.74 27.706 48.643 27.706 48.643 C 29.529 47.279 30.108 45.122 31.48 46.803 C 31.81 47.546 33.134 48.914 33.626 49.562 C 34.407 50.593 35.35 51.49 36.414 52.221 C 31.934 53.443 25.602 53.243 21.774 50.788 C 20.74 50.187 19.887 49.317 19.311 48.268 C 18.735 47.223 18.453 46.035 18.498 44.841 C 18.498 42.91 18.618 44.157 20.658 43.681 L 20.44 41.808 C 19.14 42.11 18.228 41.319 17.319 42.296 L 16.66 40.583 L 14.814 40.762 L 15.681 42.165 C 15.399 43.038 15.257 43.951 15.254 44.869 C 15.259 45.596 15.336 46.32 15.482 47.03 C 10.074 44.797 7.404 41.083 6.424 37.688 C 5.676 35.077 5.966 32.72 7.198 31.454 C 8.177 30.448 9.676 30.211 11.085 30.303 C 11.348 31.091 15.252 29.299 14.989 28.511 C 15.578 26.638 17.509 25.669 21.028 26.351 C 21.211 27.845 21.802 29.257 22.731 30.438 C 23.414 31.42 24.121 31.933 25.171 32.502 C 25.305 32.804 25.318 35.404 24.664 36.696 C 24.425 36.746 27.052 37.564 27.348 37.957 C 27.691 37.704 28.293 33.059 28.868 33.778 C 31.976 34.099 31.815 31.762 35.055 32.248 C 35.055 32.248 34.708 29.272 35.415 29.508 C 30.669 27.312 29.679 33.172 25.273 28.452 C 23.688 26.757 24.293 25.28 25.273 23.794 C 26.682 21.668 29.334 22.944 32.041 23.794 C 36.145 25.048 39.125 25.955 44.743 25.495 C 44.855 25.938 45.566 25.972 43.806 29.437 L 46.514 29.911 C 47.585 29.489 48.276 27.373 49.05 25.614 C 50.059 23.321 53.693 23.421 55.537 24.437 C 56.245 24.825 56.85 25.374 57.313 26.035 C 57.773 26.698 58.077 27.456 58.197 28.254 C 58.319 28.989 58.309 29.739 58.171 30.47 L 58.176 30.47 Z" style="fill: url('#gradient-0'); stroke-width: 0px; transform-origin: 32.2312px 31.8415px;" transform="matrix(-1, 0, 0, -1, -0.000007629395, 0)"/>
</svg>