<?xml version="1.0" encoding="utf-8"?>
<svg viewBox="0 0 48 48" width="48" height="48" xmlns="http://www.w3.org/2000/svg" xmlns:bx="https://boxy-svg.com">
  <g fill="none" fill-rule="nonzero" stroke="none" stroke-width="1" stroke-linecap="butt" stroke-linejoin="miter" stroke-miterlimit="10" stroke-dasharray="" stroke-dashoffset="0" font-family="none" font-weight="none" font-size="none" text-anchor="none" style="mix-blend-mode: normal;" transform="matrix(0.17754700779914856, 0, 0, 0.17633400857448578, -10.11557769775392, -4.396998882293701)">
    <g transform="scale(4,4)">
      <path d="M 48.852 -65.815 L 67.876 -59.582 L 60.609 -49.498 L 37.095 -49.498 L 29.828 -59.582 Z" style="fill: rgb(233, 202, 50);" transform="matrix(1, 0, 0, -1, 0, 0)" bx:shape="n-gon 48.852 -56.795 20.003 9.02 5 0 1@eb6fec53"/>
      <rect x="29.246" y="14.065" width="38.13" height="44.335" style="fill: rgb(233, 202, 50);"/>
      <path d="M 65.898 -60.099 L 71.383 -14.056 L 60.412 -14.056 L 65.898 -60.099 Z" style="fill: rgb(233, 202, 50);" transform="matrix(1, 0, 0, -1, 0, 0)" bx:shape="triangle 60.412 -60.099 10.971 46.043 0.5 0 1@7de853d9"/>
      <path d="M 31.066 -59.729 L 36.551 -13.686 L 25.58 -13.686 L 31.066 -59.729 Z" style="fill: rgb(233, 202, 50);" transform="matrix(1, 0, 0, -1, 0, 0)" bx:shape="triangle 25.58 -59.729 10.971 46.043 0.5 0 1@b18ffa9f"/>
      <rect x="49.84" y="37.627" width="14.119" height="17.176" style="fill: rgb(255, 255, 255);"/>
      <rect x="49.831" y="21.013" width="14.928" height="16.726" style="fill: rgb(255, 255, 255);"/>
      <path d="M 48.328 66.469 C 48.236 66.469 48.145 66.456 48.057 66.432 L 29.432 61.182 C 29.034 61.069 28.745 60.722 28.707 60.31 L 24.457 13.685 C 24.432 13.405 24.525 13.127 24.715 12.92 C 24.904 12.712 25.172 12.594 25.453 12.594 L 71.328 12.594 C 71.608 12.594 71.875 12.711 72.064 12.918 C 72.253 13.124 72.348 13.4 72.324 13.68 L 68.324 60.305 C 68.289 60.721 67.997 61.072 67.595 61.183 L 48.595 66.433 C 48.507 66.457 48.418 66.469 48.328 66.469 L 48.328 66.469 Z M 30.637 59.444 L 48.331 64.431 L 66.392 59.441 L 70.238 14.594 L 26.549 14.594 L 30.637 59.444 Z" style="fill: rgb(233, 202, 50);"/>
      <path d="M 48.453 17.594 L 48.453 61.594 L 63.703 57.594 L 67.453 17.594 L 48.453 17.594 Z M 63.828 36.219 L 62.703 50.969 L 50.203 54.094 L 50.203 48.844 L 59.203 46.344 L 59.328 41.969 L 50.078 43.344 L 50.078 23.594 L 64.703 23.594 L 64.328 28.969 L 54.703 29.094 L 54.703 37.219 L 63.828 36.219 Z" style="fill: rgb(255, 222, 37);"/>
      <path d="M 33.078 50.469 L 33.078 44.969 L 42.078 47.469 L 42.078 23.594 L 46.453 23.594 L 46.453 54.219 L 33.078 50.469 Z" style="fill: rgb(255, 255, 255);"/>
    </g>
  </g>
</svg>