<?xml version="1.0" encoding="utf-8"?>
<svg viewBox="0 0 48 48" width="48" height="48" xmlns="http://www.w3.org/2000/svg">
  <path d="M 3.34 32.192 L 4.733 32.192 L 4.733 26.695 L 6.888 31.488 C 7.142 32.067 7.489 32.274 8.174 32.274 C 8.856 32.274 9.19 32.068 9.445 31.488 L 11.6 26.695 L 11.6 32.193 L 12.994 32.193 L 12.994 26.705 C 12.994 26.169 12.778 25.91 12.336 25.777 C 11.279 25.446 10.569 25.732 10.249 26.445 L 8.134 31.177 L 6.085 26.444 C 5.776 25.73 5.053 25.445 3.996 25.774 C 3.556 25.909 3.34 26.168 3.34 26.703 L 3.34 32.192 Z M 14.15 27.717 L 15.542 27.717 L 15.542 30.746 C 15.528 30.911 15.595 31.296 16.357 31.308 C 16.748 31.315 19.362 31.308 19.385 31.308 L 19.385 27.702 L 20.78 27.702 C 20.787 27.702 20.779 32.621 20.779 32.641 C 20.787 33.855 19.275 34.118 18.577 34.139 L 14.181 34.139 L 14.181 33.201 L 18.585 33.201 C 19.481 33.106 19.375 32.66 19.375 32.511 L 19.375 32.145 L 16.415 32.145 C 15.039 32.133 14.162 31.532 14.152 30.841 C 14.15 30.779 14.182 27.747 14.152 27.717 L 14.15 27.717 Z" fill="#00618a" style="" transform="matrix(1, 0, 0, 1, 0, 8.881784197001252e-16)"/>
  <path d="M 21.854 32.192 L 25.857 32.192 C 26.325 32.192 26.78 32.093 27.143 31.926 C 27.744 31.648 28.039 31.273 28.039 30.781 L 28.039 29.765 C 28.039 29.363 27.705 28.989 27.05 28.738 C 26.701 28.603 26.272 28.532 25.857 28.532 L 24.17 28.532 C 23.609 28.532 23.34 28.363 23.274 27.988 C 23.259 27.943 23.259 27.905 23.259 27.863 L 23.259 27.23 C 23.259 27.194 23.259 27.158 23.274 27.113 C 23.34 26.828 23.488 26.748 23.983 26.7 C 24.024 26.7 24.077 26.692 24.118 26.692 L 28.094 26.692 L 28.094 25.763 L 24.184 25.763 C 23.623 25.763 23.327 25.799 23.06 25.88 C 22.229 26.14 21.867 26.551 21.867 27.265 L 21.867 28.078 C 21.867 28.702 22.577 29.238 23.768 29.363 C 23.903 29.371 24.036 29.38 24.17 29.38 L 25.616 29.38 C 25.669 29.38 25.723 29.38 25.762 29.389 C 26.204 29.425 26.392 29.506 26.526 29.666 C 26.609 29.749 26.634 29.827 26.634 29.915 L 26.634 30.726 C 26.634 30.824 26.567 30.949 26.432 31.055 C 26.312 31.164 26.111 31.234 25.844 31.253 C 25.791 31.253 25.75 31.261 25.697 31.261 L 21.854 31.261 L 21.854 32.189 L 21.854 32.192 Z M 36.725 30.577 C 36.725 31.531 37.435 32.067 38.866 32.174 C 39.001 32.184 39.135 32.191 39.269 32.192 L 42.896 32.192 L 42.896 31.263 L 39.242 31.263 C 38.426 31.263 38.117 31.058 38.117 30.568 L 38.117 25.765 L 36.725 25.765 L 36.725 30.577 Z M 28.928 30.625 L 28.928 27.317 C 28.928 26.475 29.519 25.966 30.686 25.804 C 30.809 25.787 30.936 25.777 31.061 25.777 L 33.704 25.777 C 33.834 25.777 33.964 25.787 34.093 25.804 C 35.261 25.966 35.85 26.475 35.85 27.317 L 35.85 30.625 C 35.85 31.306 35.599 31.672 35.023 31.911 L 36.394 33.148 L 34.776 33.148 L 33.667 32.145 L 32.551 32.217 L 31.061 32.217 C 30.806 32.217 30.538 32.182 30.243 32.101 C 29.355 31.859 28.929 31.393 28.929 30.625 L 28.928 30.625 Z M 30.431 30.542 C 30.431 30.587 30.444 30.631 30.458 30.686 C 30.54 31.069 30.9 31.285 31.448 31.285 L 32.714 31.285 L 31.551 30.236 L 33.168 30.236 L 34.181 31.15 C 34.365 31.051 34.489 30.899 34.53 30.703 C 34.543 30.66 34.543 30.615 34.543 30.571 L 34.543 27.398 C 34.543 27.361 34.543 27.314 34.53 27.272 C 34.447 26.913 34.087 26.709 33.55 26.709 L 31.451 26.709 C 30.832 26.709 30.431 26.978 30.431 27.398 L 30.431 30.544 L 30.431 30.542 Z" fill="#e48e00" style="" transform="matrix(1, 0, 0, 1, 0, 8.881784197001252e-16)"/>
  <g fill="#00618a" transform="matrix(0.20636101067066193, 0, 0, 0.20636101067066193, 3.3392081260681152, 12.31361198425293)" style="">
    <path d="M197.624 57.73c-4.147-.112-7.316.273-10.024 1.415-.77.325-1.997.333-2.123 1.298.423.443.49 1.105.825 1.65.647 1.047 1.74 2.45 2.713 3.184 1.064.803 2.16 1.663 3.303 2.36 2.03 1.238 4.296 1.945 6.25 3.184 1.152.73 2.296 1.65 3.42 2.476.555.408.93 1.042 1.65 1.297v-.118c-.38-.483-.477-1.147-.825-1.65l-1.533-1.533c-1.5-2-3.402-3.737-5.425-5.19-1.613-1.158-5.224-2.722-5.897-4.6l-.118-.118c1.144-.13 2.483-.543 3.54-.825 1.773-.475 3.358-.353 5.19-.825l2.477-.708v-.472c-.926-.95-1.586-2.207-2.595-3.066-2.64-2.25-5.523-4.495-8.49-6.37-1.646-1.04-3.68-1.714-5.425-2.595-.587-.296-1.618-.45-2.005-.944-.916-1.168-1.415-2.65-2.122-4-1.48-2.85-2.934-5.964-4.246-8.963-.895-2.045-1.48-4.062-2.594-5.897-5.355-8.804-11.12-14.118-20.048-19.34-1.9-1.11-4.187-1.55-6.605-2.123l-3.892-.236c-.792-.33-1.616-1.3-2.36-1.77-2.958-1.87-10.545-5.933-12.736-.6-1.383 3.373 2.067 6.664 3.302 8.374.866 1.2 1.976 2.543 2.594 3.892.407.886.478 1.775.826 2.713.857 2.3 1.603 4.823 2.712 6.958.56 1.08 1.178 2.218 1.887 3.184.435.593 1.18.854 1.297 1.77-.728 1.02-.77 2.6-1.18 3.892-1.843 5.812-1.148 13.035 1.533 17.337.823 1.32 2.76 4.152 5.425 3.066 2.33-.95 1.8-3.89 2.477-6.486.15-.59.058-1.02.354-1.415v.118l2.123 4.245c1.57 2.53 4.36 5.175 6.722 6.96 1.225.925 2.2 2.525 3.774 3.066v-.118h-.118c-.307-.48-.787-.677-1.18-1.06-.923-.905-1.95-2.03-2.713-3.066-2.15-2.918-4.048-6.11-5.778-9.435-.826-1.587-1.545-3.338-2.24-4.953-.268-.623-.265-1.564-.825-1.887-.763 1.184-1.887 2.14-2.477 3.538-.944 2.234-1.066 4.958-1.415 7.784-.207.074-.115.023-.236.118-1.642-.396-2.22-2.087-2.83-3.538-1.544-3.67-1.83-9.576-.472-13.798.35-1.092 1.94-4.534 1.297-5.543-.307-1.007-1.32-1.6-1.887-2.36-.7-.95-1.402-2.204-1.887-3.302-1.264-2.86-1.854-6.07-3.184-8.963-.636-1.382-1.71-2.78-2.594-4-.978-1.36-2.073-2.364-2.83-4-.27-.585-.636-1.52-.236-2.123a.93.93 0 0 1 .708-.708c.684-.527 2.59.175 3.302.472 1.89.786 3.47 1.534 5.072 2.595.77.5 1.547 1.496 2.476 1.77h1.06c1.66.382 3.52.12 5.07.59 2.742.833 5.198 2.13 7.43 3.538 6.798 4.292 12.355 10.402 16.157 17.7.612 1.173.876 2.294 1.415 3.538 1.087 2.5 2.456 5.093 3.538 7.547 1.08 2.45 2.13 4.92 3.656 6.958.802 1.07 3.9 1.646 5.307 2.24.987.417 2.603.852 3.538 1.415 1.785 1.077 3.515 2.36 5.19 3.54.837.59 3.41 1.883 3.538 2.948z"/>
    <path d="M144.91 12.798c-.865-.016-1.476.094-2.123.236v.118h.118c.412.848 1.14 1.393 1.65 2.123l1.18 2.476.118-.118c.73-.515 1.065-1.338 1.06-2.595-.293-.308-.336-.694-.59-1.062-.337-.49-1-.768-1.415-1.18z" fill-rule="evenodd"/>
  </g>
  <path d="M 43.551 31.237 C 43.551 31.85 44.035 32.264 44.576 32.264 C 45.119 32.264 45.603 31.85 45.603 31.237 C 45.603 30.625 45.119 30.211 44.576 30.211 C 44.035 30.211 43.551 30.625 43.551 31.237 Z M 45.374 31.237 C 45.374 31.702 45.018 32.049 44.576 32.049 C 44.131 32.049 43.779 31.702 43.779 31.237 C 43.779 30.773 44.13 30.424 44.576 30.424 C 45.018 30.424 45.374 30.773 45.374 31.237 Z M 44.853 31.822 L 45.081 31.822 L 44.746 31.308 C 44.927 31.29 45.063 31.202 45.063 30.989 C 45.063 30.75 44.912 30.653 44.623 30.653 L 44.165 30.653 L 44.165 31.822 L 44.363 31.822 L 44.363 31.318 L 44.546 31.318 L 44.853 31.822 Z M 44.363 31.151 L 44.363 30.816 L 44.59 30.816 C 44.708 30.816 44.85 30.838 44.85 30.975 C 44.85 31.138 44.721 31.152 44.573 31.152 L 44.363 31.152 L 44.363 31.151 Z" fill="#e48e00" fill-rule="evenodd" style="" transform="matrix(1, 0, 0, 1, 0, 8.881784197001252e-16)"/>
</svg>